{"title":"The Big Music Quiz - S01E07","uid":15967548,"size":373094130,"categoryP":"video","categoryS":"tv_shows","magnet":"?xt=urn:btih:c44b8feb1d75ca682bb367c648f51f9000299ffc&amp;dn=The+Big+Music+Quiz+-+S01E07&amp;tr=udp%3A%2F%2Ftracker.leechers-paradise.org%3A6969&amp;tr=udp%3A%2F%2Fzer0day.ch%3A1337&amp;tr=udp%3A%2F%2Fopen.demonii.com%3A1337&amp;tr=udp%3A%2F%2Ftracker.coppersurfer.tk%3A6969&amp;tr=udp%3A%2F%2Fexodus.desync.com%3A6969","seeders":4,"leechers":1,"uploader":"Bullrout","files":1,"time":1475739503,"description":"The Big Music Quiz - S01E07\r\n\r\nPlay along at home as two teams of celebrities face off on their knowledge of popular music in this next generation game show hosted by Darren McMullen.\r\n\r\nComplete name : The Big Music Quiz - S01E07.mp4\r\nFormat : MPEG-4\r\nFormat profile : Base Media / Version 2\r\nCodec ID : mp42 (mp42/isom/avc1)\r\nFile size : 356 MiB\r\nDuration : 44 min 37 s\r\nOverall bit rate mode : Variable\r\nOverall bit rate : 1 115 kb/s\r\n\r\nVideo\r\nID : 2\r\nFormat : AVC\r\nFormat/Info : Advanced Video Codec\r\nFormat profile :   \r\nFormat settings, CABAC : Yes\r\nFormat settings, ReFrames : 3 frames\r\nCodec ID : avc1\r\nCodec ID/Info : Advanced Video Coding\r\nDuration : 44 min 37 s\r\nBit rate mode : Variable\r\nBit rate : 983 kb/s\r\nMaximum bit rate : 1 000 kb/s\r\nWidth : 720 pixels\r\nHeight : 404 pixels\r\nDisplay aspect ratio : 16:9\r\nOriginal display aspect ratio : 16:9\r\nFrame rate mode : Constant\r\nFrame rate : 25.000 FPS\r\nStandard : PAL\r\nColor space : YUV\r\nChroma subsampling : 4:2:0\r\nBit depth : 8 bits\r\nScan type : Progressive\r\nBits/(Pixel*Frame) : 0.135\r\nStream size : 314 MiB (88%)\r\nWriting library : x264 core 112\r\nColor range : Limited\r\nColor primaries : BT.601 PAL\r\nTransfer characteristics : BT.470 System B, BT.470 System G\r\nMatrix coefficients : BT.601\r\n\r\nAudio\r\nID : 1\r\nFormat : AAC\r\nFormat/Info : Advanced Audio Codec\r\nFormat profile : LC\r\nCodec ID : 40\r\nDuration : 44 min 37 s\r\nBit rate mode : Variable\r\nBit rate : 128 kb/s\r\nMaximum bit rate : 576 kb/s\r\nChannel(s) : 2 channels\r\nChannel positions : Front: L R\r\nSampling rate : 48.0 kHz\r\nFrame rate : 46.875 FPS (1024 spf)\r\nCompression mode : Lossy\r\nStream size : 40.9 MiB (11%)","torrent":{"xt":"urn:btih:c44b8feb1d75ca682bb367c648f51f9000299ffc","amp;dn":"The+Big+Music+Quiz+-+S01E07","amp;tr":["udp%3A%2F%2Ftracker.leechers-paradise.org%3A6969","udp%3A%2F%2Fzer0day.ch%3A1337","udp%3A%2F%2Fopen.demonii.com%3A1337","udp%3A%2F%2Ftracker.coppersurfer.tk%3A6969","udp%3A%2F%2Fexodus.desync.com%3A6969"],"infoHash":"c44b8feb1d75ca682bb367c648f51f9000299ffc","infoHashBuffer":{"type":"Buffer","data":[196,75,143,235,29,117,202,104,43,179,103,198,72,245,31,144,0,41,159,252]},"announce":[],"urlList":[]}}